<svg width="22" height="22" viewBox="0 0 22 22" fill="none" xmlns="http://www.w3.org/2000/svg">
<path d="M14.9187 11.9625H11.7906V8.7656C11.7906 8.3531 11.4469 7.97498 11 7.97498C10.5875 7.97498 10.2094 8.31873 10.2094 8.7656V11.9625H10.1062C9.69374 11.9625 9.31561 12.3062 9.31561 12.7531C9.31561 13.2 9.65936 13.5437 10.1062 13.5437H10.2094V13.6469C10.2094 14.0594 10.5531 14.4375 11 14.4375C11.4125 14.4375 11.7906 14.0937 11.7906 13.6469V13.5437H14.9187C15.3312 13.5437 15.7094 13.2 15.7094 12.7531C15.7094 12.3062 15.3312 11.9625 14.9187 11.9625Z" fill="#7D13EF"/>
<path d="M20.4531 6.5656C20.4531 4.67498 18.9406 3.16248 17.05 3.16248C16.1563 3.16248 15.3313 3.50623 14.7125 4.0906C13.7844 3.6781 12.8219 3.4031 11.7563 3.33435V2.1656H12.7188C13.1313 2.1656 13.5094 1.82185 13.5094 1.37498C13.5094 0.928101 13.1656 0.584351 12.7188 0.584351H9.24689C8.83439 0.584351 8.45626 0.928101 8.45626 1.37498C8.45626 1.82185 8.80001 2.1656 9.24689 2.1656H10.2094V3.36873C9.17814 3.47185 8.18126 3.71248 7.25314 4.12498C6.63439 3.5406 5.80939 3.19685 4.91564 3.19685C3.02501 3.19685 1.51251 4.70935 1.51251 6.59998C1.51251 7.5281 1.89064 8.42185 2.57814 9.0406C2.16564 10.0718 1.92501 11.2062 1.92501 12.375C1.92501 17.3594 5.98126 21.4156 10.9656 21.4156C15.95 21.4156 20.0063 17.3594 20.0063 12.375C20.0063 11.2062 19.7656 10.0718 19.3531 9.0406C20.075 8.38748 20.4531 7.49373 20.4531 6.5656ZM17.05 4.70935C18.0813 4.70935 18.9063 5.53435 18.9063 6.5656C18.9063 6.90935 18.8031 7.2531 18.6313 7.5281C17.9781 6.49685 17.1531 5.63748 16.1563 4.94998C16.4313 4.7781 16.7406 4.70935 17.05 4.70935ZM3.09376 6.5656C3.09376 5.53435 3.91876 4.70935 4.95001 4.70935C5.25939 4.70935 5.56876 4.7781 5.84376 4.94998C4.84689 5.63748 4.02189 6.53123 3.36876 7.5281C3.19689 7.21873 3.09376 6.90935 3.09376 6.5656ZM11 19.8687C6.87501 19.8687 3.50626 16.5 3.50626 12.375C3.50626 8.24998 6.87501 4.88123 11 4.88123C15.125 4.88123 18.4938 8.24998 18.4938 12.375C18.4938 16.5 15.125 19.8687 11 19.8687Z" fill="#7D13EF"/>
</svg>
