<svg width="66" height="60" viewBox="0 0 66 60" fill="none" xmlns="http://www.w3.org/2000/svg">
<g clip-path="url(#clip0_216_103)">
<path d="M34.049 50L54.0416 30.0037L52.6157 28.5778L50.912 26.863L47.7712 23.7222L46.3453 22.3074L35.4749 11.4259L34.049 10L32.6194 11.4259L26.349 17.6963L27.7786 19.1259L33.2046 24.5519H12.1083V26.5704H38.0786L36.6527 25.1444L36.0601 24.5519L29.2046 17.6963L34.049 12.8556L44.9268 23.7222L48.0675 26.863L49.4824 28.2926L51.1972 29.9926L34.049 47.1444L29.2009 42.3037L36.0601 35.4407L36.6527 34.8519L38.0786 33.4333H12.1083V35.4407H33.2157L27.4898 41.1704L26.349 42.3L34.049 50Z" fill="#6802C1"/>
<path d="M33.7675 44.0142L43.2194 34.5661L44.6453 33.1364L46.349 31.4364L47.7749 30.0068L46.3601 28.5809L44.6453 26.8661L43.2194 25.4401L33.7675 15.9883L32.3416 17.4179L43.9231 28.9994H12.1083V31.0068H43.9305L43.2194 31.7105L32.3416 42.5883L33.7675 44.0142Z" fill="#6802C1"/>
</g>
<defs>
<clipPath id="clip0_216_103">
<rect width="41.9333" height="40" fill="white" transform="translate(12.1083 10)"/>
</clipPath>
</defs>
</svg>
