<svg width="22" height="22" viewBox="0 0 22 22" fill="none" xmlns="http://www.w3.org/2000/svg">
<path d="M13.6125 17.2219H8.38749C7.97499 17.2219 7.59686 17.5656 7.59686 18.0125C7.59686 18.4594 7.94061 18.8031 8.38749 18.8031H13.6469C14.0594 18.8031 14.4375 18.4594 14.4375 18.0125C14.4375 17.5656 14.0594 17.2219 13.6125 17.2219Z" fill="#7D13EF"/>
<path d="M8.2844 11.7906H13.7157C14.5063 11.7906 15.1938 11.1375 15.1938 10.3125V8.28434C15.1938 7.49371 14.5407 6.80621 13.7157 6.80621H8.2844C7.49377 6.80621 6.80627 7.45934 6.80627 8.28434V10.3125C6.84065 11.1031 7.49377 11.7906 8.2844 11.7906ZM8.38752 8.38746H13.6469V10.2437H8.38752V8.38746Z" fill="#7D13EF"/>
<path d="M5.84375 2.1656H18.0125C18.425 2.1656 18.8031 1.82185 18.8031 1.37498C18.8031 0.928101 18.4594 0.584351 18.0125 0.584351H5.84375C4.46875 0.584351 3.36875 1.64998 3.26562 2.9906C3.26562 3.02498 3.26562 3.05935 3.26562 3.09373V19.25C3.26562 20.4187 4.2625 21.3468 5.5 21.3468H16.8094C17.7719 21.3468 18.5625 20.5562 18.5625 19.5937V5.84373C18.5625 4.88123 17.7719 4.0906 16.8094 4.0906H5.74063C5.15625 4.0906 4.8125 3.74685 4.8125 3.19685C4.77813 2.61248 5.25937 2.1656 5.84375 2.1656ZM5.70625 5.63748C5.74063 5.63748 5.74063 5.63748 5.70625 5.63748H16.775C16.8781 5.63748 16.9813 5.7406 16.9813 5.84373V19.6625C16.9813 19.7656 16.8781 19.8687 16.775 19.8687H5.46562C5.0875 19.8687 4.77812 19.6281 4.77812 19.3187V5.49998C5.05312 5.6031 5.3625 5.63748 5.70625 5.63748Z" fill="#7D13EF"/>
</svg>
