<svg width="62" height="52" viewBox="0 0 62 52" fill="none" xmlns="http://www.w3.org/2000/svg">
<g clip-path="url(#clip0_196_32)">
<path d="M47.0616 0L10.2997 37.3368L24.738 52L61.5 14.6632C61.2976 10.9853 59.818 7.35569 57.0438 4.53575C54.2571 1.72597 50.6831 0.205594 47.0616 0ZM58.6858 13.658L24.9105 47.9795L24.738 48.1546L14.0936 37.3445L36.6971 14.389L48.0339 2.85801C50.6381 3.23874 53.1349 4.44946 55.1243 6.46732C57.1213 8.49534 58.3134 11.0335 58.6883 13.658H58.6858Z" fill="black"/>
<path d="M54.7469 13.0388C54.6645 11.4803 54.0396 9.96246 52.8725 8.77459C51.7053 7.58671 50.1957 6.95216 48.6737 6.85571L38.9865 16.6938L19.822 36.1439C19.9044 37.7024 20.5292 39.2355 21.6964 40.4208C22.8636 41.6087 24.3731 42.2432 25.8952 42.3245L35.5824 32.4864L54.7469 13.0362V13.0388ZM51.8528 12.1149L43.1728 20.9452L43.1603 20.9325L25.0005 39.3903C24.4831 39.1974 24.0083 38.908 23.6009 38.4943C23.1935 38.0806 22.8936 37.5831 22.7186 37.0729L31.3986 28.2578H31.4111L49.5709 9.80002C50.0883 9.99292 50.5631 10.2823 50.9705 10.696C51.3779 11.1097 51.6778 11.6072 51.8528 12.1174V12.1149Z" fill="black"/>
<path d="M9.12752 21.4832C7.95786 22.6686 7.33304 24.2016 7.25306 25.7474L9.73235 28.2653L14.4785 33.0879L16.3804 31.1563L10.1472 24.8362C10.3372 24.3108 10.6221 23.8285 11.0295 23.4148C11.4369 23.0011 11.9267 22.6965 12.4291 22.5188L13.9037 24.0164V24.029L18.6548 28.8491L20.5567 26.9175L13.3413 19.5796C11.8068 19.6634 10.2972 20.2979 9.13002 21.4832H9.12752Z" fill="black"/>
<path d="M12.1916 35.4078L7.44801 30.5954L3.31169 26.3947C3.69158 23.7601 4.87374 21.2219 6.87067 19.1939C8.8676 17.1658 11.3544 15.9653 13.9486 15.5795L22.8336 24.6028L24.7355 22.6712L23.6009 21.5188L21.6989 19.5873L19.4171 17.2699L17.5151 15.3383L14.9409 12.724C11.3144 12.9321 7.74042 14.4347 4.96872 17.2496C2.18452 20.0746 0.704941 23.7042 0.5 27.3872L10.2947 37.3343L12.1916 35.4078Z" fill="black"/>
<path d="M6.7259 29.8631L4.83316 31.7853L10.2993 37.3365L12.192 35.4143L6.7259 29.8631Z" fill="black"/>
</g>
<defs>
<clipPath id="clip0_196_32">
<rect width="61" height="52" fill="white" transform="translate(0.5)"/>
</clipPath>
</defs>
</svg>
