<svg width="62" height="62" viewBox="0 0 62 62" fill="none" xmlns="http://www.w3.org/2000/svg">
<g clip-path="url(#clip0_196_12)">
<path d="M0.5 31.3618V30.6463C0.921113 30.031 1.60798 29.9574 2.24782 29.8143C2.63623 29.7284 2.76501 29.5669 2.78954 29.1499C2.91629 26.9442 3.26994 24.7712 3.96702 22.6738C7.17443 13.0454 13.6628 6.76348 23.3525 3.7748C23.8247 3.62966 24.3092 3.51927 24.7896 3.4048C25.4519 3.24739 25.9814 3.51723 26.1122 4.06917C26.241 4.6109 25.9364 5.07085 25.3129 5.26301C25.1433 5.31616 24.9675 5.35091 24.7937 5.39179C23.0765 5.80882 21.4146 6.38325 19.818 7.13962C14.871 9.48435 11.0094 13.027 8.24357 17.7431C6.25861 21.1242 5.10975 24.7814 4.7745 28.692C4.74588 29.0232 4.76632 29.1724 5.1629 29.06C6.03784 28.8106 6.92299 28.5898 7.80814 28.3731C8.10047 28.3015 8.2129 28.1605 8.25788 27.8518C8.8875 23.3811 10.6619 19.4214 13.622 16.0075C13.9061 15.6804 13.9879 15.431 13.7732 15.0283C13.577 14.6583 13.6424 14.2495 13.9695 13.9347C14.2761 13.6382 14.687 13.5585 15.0141 13.7629C15.4924 14.0614 15.7582 13.8304 16.0873 13.5483C19.4685 10.6475 23.3791 8.90175 27.7803 8.2619C28.1606 8.20671 28.3098 8.06974 28.3997 7.70587C28.8985 5.70865 29.4321 3.71961 29.937 1.72239C30.0597 1.23586 30.2232 0.794308 30.6504 0.49585H31.3659C31.7932 0.794308 31.9567 1.23586 32.0794 1.72239C32.5863 3.73801 33.1178 5.74749 33.6309 7.76311C33.7004 8.03499 33.7863 8.20466 34.1195 8.24555C36.497 8.54401 38.7599 9.24109 40.9207 10.2653C41.7813 10.6741 42.6174 11.1259 43.4065 11.6574C43.8889 11.9845 43.9932 12.5016 43.7295 12.9596C43.4821 13.3868 42.9322 13.5319 42.4252 13.2969C42.2821 13.2294 42.1452 13.1476 42.0103 13.0659C39.7902 11.7105 37.3985 10.8049 34.8473 10.3041C34.3607 10.208 34.281 10.2796 34.4118 10.7702C35.0639 13.1987 35.7017 15.6314 36.2966 18.0742C36.4356 18.6487 36.5971 18.6752 37.0918 18.4361C40.2829 16.8988 43.4882 15.3942 46.6916 13.8795C47.3968 13.5463 47.9263 13.6382 48.2084 14.1411C48.4394 14.5541 48.3045 14.9404 48.1205 15.3288C46.5791 18.5832 45.0439 21.8418 43.5025 25.0982C43.3881 25.3415 43.2368 25.5275 43.6681 25.6379C46.2398 26.29 48.8073 26.9626 51.3729 27.6351C51.6836 27.7169 51.8042 27.6699 51.7306 27.3121C51.4301 25.8362 51.0315 24.3909 50.4591 22.9906C49.9787 21.8131 49.3531 20.7133 48.7215 19.6135C48.3699 19.0003 48.4884 18.4483 48.9852 18.1621C49.4819 17.8759 49.9971 18.0538 50.3875 18.6487C50.3978 18.665 50.408 18.6814 50.4202 18.6998C52.1844 21.5065 53.3087 24.5483 53.7585 27.8334C53.7932 28.091 53.8382 28.2811 54.1305 28.3527C55.0729 28.5857 56.0112 28.8351 56.9495 29.0784C57.2071 29.1458 57.2889 29.0865 57.2623 28.7901C57.1131 27.1261 56.8371 25.4887 56.3792 23.8819C54.8133 18.389 51.7776 13.8754 47.3212 10.3143C44.1731 7.79786 40.6059 6.15225 36.683 5.25688C35.9368 5.0872 35.6179 4.65178 35.7406 4.05691C35.8612 3.47839 36.3804 3.20651 37.1041 3.37209C39.0195 3.8116 40.9023 4.37172 42.6685 5.23439C52.2989 9.94226 57.8694 17.5693 59.1491 28.2607C59.2023 28.7124 59.0919 29.2685 59.3188 29.5935C59.5662 29.9472 60.1856 29.8715 60.6292 30.033C60.6844 30.0535 60.7477 30.0514 60.8029 30.0739C61.2281 30.2415 61.5041 30.5339 61.5 31.0081C61.4959 31.4824 61.2199 31.7849 60.7866 31.928C60.4493 32.0405 60.1017 32.1324 59.7522 32.1938C59.3904 32.2571 59.2452 32.4043 59.2248 32.805C59.1471 34.332 58.9284 35.8427 58.5829 37.335C55.8232 49.2304 45.9086 57.9389 33.7475 59.145C33.2936 59.1899 32.7396 59.0857 32.4146 59.3126C32.0589 59.56 32.1366 60.1794 31.9751 60.6209C31.9547 60.6761 31.9567 60.7395 31.9342 60.7947C31.7686 61.2199 31.4763 61.4958 31.002 61.4938C30.5278 61.4897 30.2232 61.2158 30.0801 60.7845C29.9615 60.4288 29.8838 60.0587 29.8 59.6908C29.7326 59.4005 29.6385 59.2308 29.2644 59.2206C28.1728 59.194 27.0894 59.0387 26.0141 58.8547C13.3726 56.7062 3.51116 45.6714 2.78954 32.852C2.76706 32.435 2.63827 32.2735 2.24987 32.1876C1.61002 32.0466 0.923157 31.971 0.502044 31.3556L0.5 31.3618ZM57.2684 33.3018C57.4238 32.8377 57.1417 32.8602 56.6695 33.0033C55.8927 33.2384 55.1036 33.4346 54.3125 33.6104C53.9547 33.6902 53.7912 33.8271 53.7442 34.2196C53.6031 35.3807 53.3435 36.5214 53.0001 37.6417C52.0434 40.7734 50.502 43.5863 48.3494 46.0557C48.1205 46.3174 47.9958 46.53 48.1982 46.8796C48.423 47.27 48.4067 47.6911 48.0735 48.0346C47.7239 48.3943 47.2844 48.4168 46.8714 48.1879C46.5444 48.0059 46.342 48.102 46.0946 48.3146C42.6317 51.3115 38.6311 53.1329 34.0909 53.7564C33.8272 53.7932 33.7107 53.9056 33.6493 54.1427C33.4163 55.0647 33.1812 55.9846 32.9338 56.9025C32.848 57.2234 32.9666 57.2745 33.2568 57.2377C33.8476 57.16 34.4445 57.1375 35.0312 57.0394C40.3524 56.1624 45.0337 53.9526 48.977 50.2485C53.8321 45.6878 56.5489 40.0702 57.2664 33.2977L57.2684 33.3018ZM28.6226 57.2295C28.9728 57.25 29.105 57.0892 29.0191 56.7471C28.8045 55.9028 28.5817 55.0606 28.3772 54.2143C28.3098 53.9301 28.1892 53.7973 27.8703 53.7523C23.4016 53.1267 19.4439 51.3462 16.0219 48.4025C15.7091 48.1327 15.4597 48.0039 15.0427 48.2288C14.6809 48.425 14.2659 48.3678 13.947 48.0509C13.6444 47.7504 13.5627 47.3416 13.761 47.0104C14.039 46.5423 13.8509 46.2724 13.5586 45.9331C10.6476 42.5356 8.89363 38.6106 8.25788 34.1869C8.21086 33.8557 8.09842 33.7045 7.77748 33.6288C6.91072 33.4244 6.04601 33.2077 5.19152 32.9604C4.77859 32.8397 4.73975 32.9726 4.77041 33.3426C4.95439 35.5463 5.4123 37.6948 6.1564 39.7718C8.0003 44.9151 11.1239 49.118 15.5476 52.3356C19.4521 55.173 23.8227 56.7757 28.6185 57.2316L28.6226 57.2295ZM29.6406 30.9958C28.0665 29.4238 26.564 27.9581 25.1065 26.4495C24.7508 26.0815 24.4503 26.0222 23.978 26.1449C19.2681 27.3837 14.55 28.6 9.83603 29.8245C8.42141 30.1925 7.00885 30.5645 5.59628 30.9345C5.60037 30.955 5.6065 30.9754 5.61059 30.9958H29.6406ZM31.0184 29.6426C32.6047 28.0522 34.0888 26.5394 35.6057 25.0594C35.9348 24.7384 35.9941 24.4666 35.8796 24.0311C34.5917 19.1311 33.3284 14.227 32.0548 9.3249C31.74 8.11267 31.417 6.90248 31.0981 5.6923C31.0715 5.69843 31.045 5.70456 31.0184 5.7107V29.6446V29.6426ZM56.3138 31.1001C56.3076 31.0797 56.3036 31.0592 56.2974 31.0388H32.3942C33.9437 32.5842 35.4421 34.0499 36.8997 35.5565C37.2513 35.9204 37.5497 35.992 38.026 35.8673C42.7339 34.6285 47.4459 33.4121 52.1578 32.1897C53.5438 31.8299 54.9298 31.464 56.3158 31.1021L56.3138 31.1001ZM30.9898 32.3655C29.4014 33.96 27.9173 35.4748 26.4005 36.9548C26.0693 37.2778 26.0182 37.5517 26.1306 37.983C27.4165 42.8831 28.6818 47.7872 29.9554 52.6893C30.2702 53.9015 30.5932 55.1097 30.9141 56.3198C30.9387 56.3137 30.9652 56.3076 30.9898 56.2994V32.3634V32.3655ZM47.1229 44.5716C49.5576 41.6279 51.0662 38.3633 51.7347 34.702C51.8124 34.2728 51.6263 34.3075 51.3258 34.3852C49.1058 34.9698 46.8817 35.5402 44.6616 36.1248C44.2242 36.2393 43.5782 36.1964 43.4146 36.5357C43.2552 36.8649 43.7029 37.3391 43.8909 37.7418C44.9478 39.9966 46.019 42.2453 47.1208 44.5696L47.1229 44.5716ZM17.4365 47.1167C20.3863 49.5657 23.6796 51.0927 27.3858 51.7428C27.8008 51.8164 27.6842 51.567 27.6311 51.3667C26.9667 48.7991 26.2942 46.2336 25.64 43.664C25.5542 43.3246 25.4274 43.3308 25.1576 43.4636C24.3072 43.8848 23.4445 44.2834 22.5859 44.6881C20.8892 45.4895 19.1904 46.2888 17.4365 47.1167ZM14.8873 44.5675C16.1425 41.9162 17.3568 39.3425 18.5833 36.7749C18.7407 36.4437 18.5342 36.4253 18.3135 36.3681C15.7664 35.7099 13.2192 35.0516 10.6762 34.3811C10.3491 34.2952 10.2019 34.3055 10.2755 34.7102C10.9481 38.3674 12.4526 41.6341 14.8873 44.5675ZM44.5676 47.1228C41.9121 45.8656 39.3384 44.6493 36.7688 43.4268C36.3661 43.2347 36.4131 43.5597 36.36 43.7621C35.7528 46.0966 35.1498 48.4332 34.5427 50.7697C34.2749 51.798 34.2769 51.8225 35.297 51.612C38.7354 50.9047 41.7997 49.4206 44.5676 47.1228ZM14.9016 17.463C14.0001 18.5178 13.2785 19.5808 12.6468 20.7031C11.4898 22.7535 10.7232 24.9429 10.2817 27.2529C10.206 27.6494 10.298 27.7271 10.6885 27.6249C13.209 26.9564 15.7336 26.2921 18.2644 25.6604C18.7101 25.548 18.6773 25.3987 18.5077 25.0737C18.2419 24.5667 18.015 24.0393 17.7697 23.5221C16.8253 21.5249 15.8788 19.5277 14.9016 17.463ZM17.504 14.8566C17.5673 14.9179 17.5919 14.9547 17.6246 14.9711C20.1451 16.167 22.6697 17.3567 25.1862 18.5608C25.5174 18.7202 25.5746 18.5832 25.6441 18.3052C26.2983 15.754 26.9585 13.2049 27.6331 10.6598C27.7313 10.2857 27.6331 10.2121 27.2795 10.2775C23.6387 10.9542 20.3884 12.4608 17.5019 14.8546L17.504 14.8566ZM16.9684 16.8007C19.3397 19.1781 21.7376 21.5821 24.1559 24.0086C24.4114 23.0397 24.6486 22.0646 24.9286 21.1017C25.037 20.7317 24.9613 20.56 24.6015 20.3924C22.1791 19.2681 19.771 18.1151 17.3547 16.9785C17.2055 16.909 17.0604 16.7516 16.9684 16.7986V16.8007ZM38.0158 24.164C38.993 24.4195 39.9742 24.6526 40.9411 24.9367C41.305 25.0451 41.4522 24.9551 41.6055 24.624C42.7216 22.2199 43.8603 19.8282 44.9867 17.4283C45.0562 17.2811 45.2074 17.1523 45.1625 17.0276C42.7993 19.3866 40.4198 21.762 38.0158 24.164ZM23.9658 37.84C23.0152 37.5926 22.0197 37.3534 21.0364 37.0693C20.6971 36.9712 20.558 37.0529 20.417 37.3616C19.6647 38.997 18.892 40.6222 18.1234 42.2494C17.6879 43.1713 17.2505 44.0912 16.8355 44.9641C19.1905 42.6112 21.5679 40.2378 23.9658 37.84ZM44.9008 45.142C42.5826 42.8177 40.2093 40.4402 37.8339 38.0587C37.5784 39.0461 37.3228 40.0968 37.0285 41.1373C36.9426 41.4419 37.1327 41.4746 37.3024 41.5543C38.0158 41.8957 38.7333 42.2289 39.4488 42.5683C41.3009 43.4432 43.153 44.3181 44.9008 45.144V45.142Z" fill="black"/>
</g>
<defs>
<clipPath id="clip0_196_12">
<rect width="61" height="61" fill="white" transform="translate(0.5 0.5)"/>
</clipPath>
</defs>
</svg>
