<svg width="22" height="22" viewBox="0 0 22 22" fill="none" xmlns="http://www.w3.org/2000/svg">
<g clip-path="url(#clip0_17_6466)">
<path d="M15.9157 12.1344H6.08443C5.8438 12.1344 5.60318 12.2375 5.46568 12.4438C5.32818 12.65 5.25943 12.8906 5.32818 13.1313C6.05005 15.675 8.38755 17.4625 11.0001 17.4625C13.6813 17.4625 15.9501 15.7438 16.6719 13.1313C16.7407 12.8906 16.7063 12.65 16.5344 12.4438C16.3969 12.2375 16.1563 12.1344 15.9157 12.1344ZM11.0001 15.8813C9.4188 15.8813 8.00943 15.0219 7.2188 13.6813H14.7813C14.0251 15.0219 12.6157 15.8813 11.0001 15.8813Z" fill="#7D13EF"/>
<path d="M11 0.275024C5.08752 0.275024 0.275024 5.08752 0.275024 11C0.275024 16.9125 5.08752 21.7594 11.0344 21.7594C16.9813 21.7594 21.7938 16.9469 21.7938 11C21.7938 5.05315 16.9125 0.275024 11 0.275024ZM11 20.2125C5.91252 20.2125 1.78752 16.0875 1.78752 11C1.78752 5.91252 5.9469 1.8219 11 1.8219C16.0531 1.8219 20.2125 5.9469 20.2125 11.0344C20.2125 16.1219 16.0875 20.2125 11 20.2125Z" fill="#7D13EF"/>
<path d="M6.875 9.21252C7.63439 9.21252 8.25 8.59692 8.25 7.83752C8.25 7.07813 7.63439 6.46252 6.875 6.46252C6.11561 6.46252 5.5 7.07813 5.5 7.83752C5.5 8.59692 6.11561 9.21252 6.875 9.21252Z" fill="#7D13EF"/>
<path d="M15.125 9.21252C15.8844 9.21252 16.5 8.59692 16.5 7.83752C16.5 7.07813 15.8844 6.46252 15.125 6.46252C14.3656 6.46252 13.75 7.07813 13.75 7.83752C13.75 8.59692 14.3656 9.21252 15.125 9.21252Z" fill="#7D13EF"/>
</g>
<defs>
<clipPath id="clip0_17_6466">
<rect width="22" height="22" fill="white"/>
</clipPath>
</defs>
</svg>
