<svg width="66" height="54" viewBox="0 0 66 54" fill="none" xmlns="http://www.w3.org/2000/svg">
<g clip-path="url(#clip0_196_19)">
<path d="M34.8244 52.1904L4.91287 22.4904L3.08835 24.302L32.9998 54.002L34.8244 52.1904Z" fill="black"/>
<path d="M11.2817 10.7056C8.6184 13.3501 7.19107 16.7544 6.99976 20.2163L15.1257 28.2848L16.9508 26.4726L9.69833 19.2715C10.0633 16.8019 11.1987 14.4224 13.1144 12.5202C15.03 10.6181 17.4291 9.48829 19.9212 9.12836L27.1711 16.327L28.9962 14.5149L20.8728 6.44885C17.3837 6.63882 13.9501 8.05606 11.2868 10.7031L11.2817 10.7056Z" fill="black"/>
<path d="M18.4587 15.6596L23.151 20.3188L24.976 18.5066L19.3297 12.9001C17.862 12.9801 16.4171 13.5775 15.2969 14.6898C14.1767 15.8021 13.575 17.2368 13.4945 18.6941L19.1409 24.3005L20.9659 22.4884L16.2736 17.8292C16.4473 17.3443 16.7292 16.8869 17.122 16.497C17.5147 16.1071 17.9728 15.8296 18.4637 15.6546L18.4587 15.6596Z" fill="black"/>
<path d="M12.9381 30.4594L3.16837 20.7612C3.66177 16.292 5.63284 11.9528 9.0841 8.52592C12.5354 5.09906 16.9054 3.14192 21.4064 2.65201L31.1737 12.3502L32.9987 10.538L22.3857 0C16.8828 0.302444 11.4655 2.53953 7.26155 6.71376C3.05761 10.888 0.804597 16.267 0.5 21.731L11.1131 32.269L12.9381 30.4569V30.4594Z" fill="black"/>
<path d="M12.9381 34.0812L44.591 2.64951C49.092 3.13942 53.4621 5.09656 56.9134 8.52342C60.3646 11.9503 62.3357 16.2895 62.8291 20.7587L31.1762 52.1878L33.0013 54L65.5 21.731C65.1954 16.267 62.9424 10.888 58.7384 6.71376C54.532 2.53953 49.1172 0.302444 43.6118 0L11.1131 32.269L12.9381 34.0812Z" fill="black"/>
<path d="M24.9735 46.034L52.5055 18.6965C52.425 17.2393 51.8233 15.8046 50.7031 14.6923C49.5829 13.58 48.138 12.9826 46.6704 12.9026L19.1383 40.24L20.9634 42.0522L47.5414 15.6621C48.0297 15.8345 48.4904 16.1145 48.8831 16.5044C49.2758 16.8943 49.5577 17.3493 49.7314 17.8367L23.1535 44.2268L24.9785 46.039L24.9735 46.034Z" fill="black"/>
<path d="M54.7183 10.7055C52.0524 8.0585 48.6213 6.64126 45.1323 6.45129L15.1232 36.2483L16.9482 38.0604L46.0838 9.1308C48.5735 9.49073 50.9725 10.6205 52.8907 12.5227C54.8039 14.4248 55.9417 16.8019 56.3067 19.2739L27.1686 48.2061L28.9937 50.0182L59.0053 20.2187C58.8115 16.7569 57.3866 13.3525 54.7233 10.708L54.7183 10.7055Z" fill="black"/>
</g>
<defs>
<clipPath id="clip0_196_19">
<rect width="65" height="54" fill="white" transform="translate(0.5)"/>
</clipPath>
</defs>
</svg>
