<svg width="74" height="56" viewBox="0 0 74 56" fill="none" xmlns="http://www.w3.org/2000/svg">
<g clip-path="url(#clip0_173_761)">
<path d="M73.5 17.4785L70.0853 15.8871L37.0081 0.5L3.92819 15.8871L0.5 17.4785L3.92819 19.0726L13.2452 23.4113V44.4543L16.1452 45.7984L37.0081 55.5L57.8548 45.7984L60.7548 44.4543V23.4113L64.2423 21.7903V51.3629H67.1395V20.4409L70.088 19.0699L73.5027 17.4758L73.5 17.4785ZM57.8548 42.6129L37.0081 52.3145L16.1452 42.6129V24.7581L19.6165 26.379V40.3925L22.5164 41.7527L37.0054 48.4892L51.4809 41.7527L54.3808 40.4086V26.3817L57.8521 24.7608V42.6156L57.8548 42.6129ZM28.8931 37.7016L37.0081 41.4704L45.1096 37.7016L48.0096 36.3575V29.3441L51.4809 27.7231V38.5645L37.0054 45.3011L22.5164 38.5645V27.7231L26.0039 29.3441V36.3575L28.8904 37.7016H28.8931ZM28.8931 34.5161V30.6882L37.0081 34.457L45.1096 30.6882V34.5161L37.0081 38.2849L28.8931 34.5161ZM57.8548 21.5699L54.3835 23.1909L51.4836 24.5349L48.0123 26.1559L45.1123 27.5L37.0108 31.2688L28.8958 27.5L26.0093 26.1559L22.5218 24.5349L19.6219 23.1909L16.1506 21.5699L13.2506 20.2258L7.3456 17.4785L37.0081 3.68548L66.6598 17.4785L60.7548 20.2258L57.8548 21.5699Z" fill="#1D1D1B"/>
<path d="M37.0081 7.51343L19.002 15.8871L15.5738 17.4785L19.002 19.0726L37.0081 27.4462L55.0142 19.0726L58.4289 17.4785L55.0142 15.8871L37.0081 7.51343ZM37.0081 24.2607L22.4302 17.4812L37.0081 10.7016L51.586 17.4812L37.0081 24.2607Z" fill="#1D1D1B"/>
</g>
<defs>
<clipPath id="clip0_173_761">
<rect width="73" height="55" fill="white" transform="translate(0.5 0.5)"/>
</clipPath>
</defs>
</svg>
