<svg width="70" height="40" viewBox="0 0 70 40" fill="none" xmlns="http://www.w3.org/2000/svg">
<g clip-path="url(#clip0_196_43)">
<path d="M21.1096 40V28.8849C18.3146 26.3341 14.6067 24.7809 10.5478 24.7809C6.48876 24.7809 2.79494 26.3341 0 28.8707V39.9857H2.7809V30.2102C4.95787 28.5714 7.64045 27.6024 10.5618 27.6024C13.4831 27.6024 16.1657 28.5714 18.3427 30.2244V39.9857H21.1096V40Z" fill="#08090A"/>
<path d="M10.5478 30.9939C8.83428 30.9939 7.28933 31.6494 6.10956 32.7182V40.0142H8.89046V34.2002C9.39608 33.9579 9.95787 33.8154 10.5618 33.8154C11.1517 33.8154 11.7275 33.9579 12.2332 34.2002V40.0142H15.0141V32.7182C13.8202 31.6494 12.2612 30.9939 10.5478 30.9939Z" fill="#08090A"/>
<path d="M45.5618 40V28.8849C42.7668 26.3341 39.059 24.7809 35 24.7809C30.941 24.7809 27.2472 26.3341 24.4522 28.8707V39.9857H27.2331V30.2102C29.4101 28.5714 32.0927 27.6024 35.014 27.6024C37.9354 27.6024 40.618 28.5714 42.7949 30.2244V39.9857H45.5618V40Z" fill="#08090A"/>
<path d="M35 30.9939C33.2865 30.9939 31.7416 31.6494 30.5618 32.7182V40.0142H33.3427V34.2002C33.8483 33.9579 34.4101 33.8154 35.014 33.8154C35.6039 33.8154 36.1798 33.9579 36.6854 34.2002V40.0142H39.4663V32.7182C38.2725 31.6494 36.7135 30.9939 35 30.9939Z" fill="#08090A"/>
<path d="M35 0C29.1713 0 24.4522 4.78803 24.4522 10.7018C24.4522 16.6014 29.1713 21.4036 35 21.4036C40.8286 21.4036 45.5477 16.6014 45.5477 10.7018C45.5477 4.78803 40.8286 0 35 0ZM35 18.5821C30.7022 18.5821 27.2331 15.0481 27.2331 10.7018C27.2331 6.34129 30.7022 2.80727 35 2.80727C39.2837 2.80727 42.7668 6.34129 42.7668 10.7018C42.7668 15.0481 39.2837 18.5821 35 18.5821Z" fill="#08090A"/>
<path d="M10.5618 6.18457C6.41854 6.18457 3.0618 9.59034 3.0618 13.7941C3.0618 17.9836 6.41854 21.4037 10.5618 21.4037C14.7051 21.4037 18.0618 17.9836 18.0618 13.7941C18.0618 9.59034 14.7051 6.18457 10.5618 6.18457ZM10.5618 18.5821C7.94944 18.5821 5.8427 16.4304 5.8427 13.7941C5.8427 11.1579 7.96348 9.00609 10.5618 9.00609C13.1601 9.00609 15.2809 11.1579 15.2809 13.7941C15.2809 16.4304 13.1601 18.5821 10.5618 18.5821Z" fill="#08090A"/>
<path d="M70 40V28.8849C67.205 26.3341 63.4972 24.7809 59.4382 24.7809C55.3792 24.7809 51.6854 26.3341 48.8904 28.8707V39.9857H51.6713V30.2102C53.8483 28.5714 56.5309 27.6024 59.4522 27.6024C62.3736 27.6024 65.0562 28.5714 67.2331 30.2244V39.9857H70V40Z" fill="#08090A"/>
<path d="M59.4382 30.9939C57.7247 30.9939 56.1798 31.6494 55 32.7182V40.0142H57.7809V34.2002C58.2865 33.9579 58.8483 33.8154 59.4522 33.8154C60.0421 33.8154 60.618 33.9579 61.1236 34.2002V40.0142H63.9045V32.7182C62.6966 31.6494 61.1376 30.9939 59.4382 30.9939Z" fill="#08090A"/>
<path d="M59.4382 6.18457C55.2949 6.18457 51.9382 9.59034 51.9382 13.7941C51.9382 17.9836 55.2949 21.4037 59.4382 21.4037C63.5815 21.4037 66.9382 17.9836 66.9382 13.7941C66.9382 9.59034 63.5815 6.18457 59.4382 6.18457ZM59.4382 18.5821C56.8258 18.5821 54.7191 16.4304 54.7191 13.7941C54.7191 11.1579 56.8399 9.00609 59.4382 9.00609C62.0365 9.00609 64.1573 11.1579 64.1573 13.7941C64.1573 16.4304 62.0506 18.5821 59.4382 18.5821Z" fill="#08090A"/>
</g>
<defs>
<clipPath id="clip0_196_43">
<rect width="70" height="40" fill="white"/>
</clipPath>
</defs>
</svg>
