<svg width="530" height="108" viewBox="0 0 530 108" fill="none" xmlns="http://www.w3.org/2000/svg">
<g clip-path="url(#clip0_378_252)">
<path d="M88.9231 0H0V88.9231H88.9231V0Z" fill="#6802C1"/>
<path d="M44.4615 107.301L57.7875 84.2154H31.1306L44.4615 107.301Z" fill="#6802C1"/>
<path d="M88.9231 14.402H0V21.6006H88.9231V14.402Z" fill="#6802C1"/>
<path d="M88.9231 0H0V7.19853H88.9231V0Z" fill="#6802C1"/>
<path d="M88.9231 44.0431H0V51.2416H88.9231V44.0431Z" fill="#6802C1"/>
<path d="M88.9231 29.641H0V36.8396H88.9231V29.641Z" fill="#6802C1"/>
<path d="M88.9231 73.6841H0V80.8827H88.9231V73.6841Z" fill="#6802C1"/>
<path d="M88.9231 59.282H0V66.4806H88.9231V59.282Z" fill="#6802C1"/>
<path d="M38.9518 33.178H29.4318L32.5802 18.5418H55.3216V74.1026H38.9518V33.183V33.178Z" fill="white"/>
</g>
<rect x="94" width="436" height="89" fill="#6802C1"/>
<path d="M132.376 32.584H147.496V35.248H135.4V43.744H147.388V46.408H135.4V55.336H147.496V58H132.376V32.584ZM157.372 58.468C155.644 58.468 154.216 58.192 153.088 57.64C151.96 57.064 151.156 56.224 150.676 55.12C150.292 54.28 150.1 53.284 150.1 52.132H152.944C152.944 52.924 153.076 53.584 153.34 54.112C153.94 55.504 155.296 56.2 157.408 56.2C158.44 56.2 159.292 56.056 159.964 55.768C160.66 55.48 161.128 55.048 161.368 54.472C161.536 54.04 161.62 53.656 161.62 53.32C161.62 52.912 161.548 52.564 161.404 52.276C161.212 51.868 160.9 51.544 160.468 51.304C160.06 51.04 159.568 50.836 158.992 50.692C158.44 50.524 157.648 50.332 156.616 50.116C155.2 49.804 154.024 49.408 153.088 48.928C152.152 48.424 151.492 47.74 151.108 46.876C150.868 46.324 150.748 45.7 150.748 45.004C150.748 44.26 150.892 43.6 151.18 43.024C151.588 42.088 152.308 41.368 153.34 40.864C154.396 40.336 155.68 40.072 157.192 40.072C158.752 40.072 160.06 40.336 161.116 40.864C162.172 41.368 162.928 42.124 163.384 43.132C163.72 43.828 163.888 44.692 163.888 45.724H161.116C161.116 45.124 160.996 44.56 160.756 44.032C160.492 43.432 160.048 42.988 159.424 42.7C158.8 42.388 158.044 42.232 157.156 42.232C156.268 42.232 155.536 42.364 154.96 42.628C154.408 42.892 154.024 43.264 153.808 43.744C153.664 44.056 153.592 44.404 153.592 44.788C153.592 45.124 153.652 45.412 153.772 45.652C153.964 46.06 154.288 46.396 154.744 46.66C155.2 46.924 155.692 47.14 156.22 47.308C156.748 47.452 157.516 47.632 158.524 47.848C160.06 48.208 161.296 48.64 162.232 49.144C163.168 49.624 163.84 50.308 164.248 51.196C164.488 51.748 164.608 52.384 164.608 53.104C164.608 53.92 164.464 54.652 164.176 55.3C163.72 56.332 162.892 57.124 161.692 57.676C160.492 58.204 159.052 58.468 157.372 58.468ZM175.476 58.396C173.628 58.396 172.032 58.012 170.688 57.244C169.344 56.452 168.348 55.336 167.7 53.896C167.124 52.552 166.836 51.004 166.836 49.252C166.836 47.476 167.124 45.94 167.7 44.644C168.348 43.18 169.332 42.052 170.652 41.26C171.996 40.468 173.604 40.072 175.476 40.072C177.948 40.072 179.928 40.744 181.416 42.088C182.064 42.688 182.568 43.396 182.928 44.212C183.312 45.028 183.516 45.928 183.54 46.912H180.444C180.348 45.64 179.892 44.596 179.076 43.78C178.644 43.396 178.116 43.108 177.492 42.916C176.892 42.7 176.22 42.592 175.476 42.592C174.3 42.592 173.292 42.856 172.452 43.384C171.636 43.888 171.012 44.608 170.58 45.544C170.148 46.48 169.932 47.716 169.932 49.252C169.932 50.764 170.148 52 170.58 52.96C171.012 53.872 171.636 54.592 172.452 55.12C173.292 55.624 174.3 55.876 175.476 55.876C176.244 55.876 176.928 55.78 177.528 55.588C178.152 55.372 178.668 55.072 179.076 54.688C179.484 54.328 179.796 53.884 180.012 53.356C180.252 52.828 180.384 52.252 180.408 51.628H183.54C183.42 53.62 182.724 55.216 181.452 56.416C180.732 57.064 179.856 57.556 178.824 57.892C177.816 58.228 176.7 58.396 175.476 58.396ZM194.709 58.432C192.789 58.432 191.157 58.024 189.813 57.208C188.493 56.392 187.509 55.264 186.861 53.824C186.261 52.528 185.961 51.004 185.961 49.252C185.961 47.548 186.261 46.024 186.861 44.68C187.509 43.24 188.493 42.112 189.813 41.296C191.157 40.48 192.789 40.072 194.709 40.072C196.629 40.072 198.249 40.48 199.569 41.296C200.913 42.112 201.909 43.24 202.557 44.68C203.157 46.072 203.457 47.596 203.457 49.252C203.457 50.908 203.157 52.432 202.557 53.824C201.909 55.264 200.913 56.392 199.569 57.208C198.249 58.024 196.629 58.432 194.709 58.432ZM194.709 55.912C195.957 55.912 197.001 55.66 197.841 55.156C198.681 54.628 199.317 53.896 199.749 52.96C200.181 52 200.397 50.764 200.397 49.252C200.397 47.716 200.181 46.48 199.749 45.544C199.317 44.608 198.681 43.888 197.841 43.384C197.001 42.856 195.957 42.592 194.709 42.592C193.461 42.592 192.405 42.856 191.541 43.384C190.701 43.888 190.077 44.608 189.669 45.544C189.237 46.48 189.021 47.716 189.021 49.252C189.021 50.764 189.237 52 189.669 52.96C190.101 53.896 190.737 54.628 191.577 55.156C192.417 55.66 193.461 55.912 194.709 55.912ZM206.726 32.584H209.606V58H206.726V32.584ZM228.119 43.528C228.599 44.56 228.839 45.928 228.839 47.632V58H225.959V55.516C224.687 57.46 222.527 58.432 219.479 58.432C217.991 58.432 216.719 58.18 215.663 57.676C214.607 57.172 213.863 56.44 213.431 55.48C213.143 54.784 212.999 54.016 212.999 53.176C212.999 52.336 213.143 51.592 213.431 50.944C213.983 49.72 214.955 48.88 216.347 48.424C217.763 47.944 219.563 47.704 221.747 47.704H225.959V47.128C225.959 46.6 225.923 46.132 225.851 45.724C225.779 45.316 225.659 44.92 225.491 44.536C224.891 43.168 223.475 42.484 221.243 42.484C218.963 42.484 217.511 43.132 216.887 44.428C216.671 44.932 216.563 45.448 216.563 45.976H213.647C213.695 44.92 213.875 44.068 214.187 43.42C214.667 42.292 215.507 41.452 216.707 40.9C217.931 40.348 219.431 40.072 221.207 40.072C223.031 40.072 224.507 40.36 225.635 40.936C226.787 41.488 227.615 42.352 228.119 43.528ZM220.199 56.02C221.495 56.02 222.575 55.792 223.439 55.336C224.327 54.856 224.975 54.16 225.383 53.248C225.767 52.408 225.959 51.352 225.959 50.08V49.9H221.963C220.451 49.9 219.191 50.044 218.183 50.332C217.199 50.596 216.551 51.076 216.239 51.772C216.071 52.156 215.987 52.54 215.987 52.924C215.987 53.356 216.071 53.788 216.239 54.22C216.503 54.844 216.983 55.3 217.679 55.588C218.375 55.876 219.215 56.02 220.199 56.02ZM240.548 40.288C241.172 40.288 241.76 40.36 242.312 40.504V43.096C241.76 42.976 241.172 42.916 240.548 42.916C238.988 42.916 237.812 43.384 237.02 44.32C236.228 45.232 235.832 46.552 235.832 48.28V58H232.952V40.504H235.796V42.772C236.276 41.98 236.912 41.368 237.704 40.936C238.496 40.504 239.444 40.288 240.548 40.288ZM256.615 54.724C256.999 54.364 257.311 53.944 257.551 53.464C257.791 52.96 257.935 52.42 257.983 51.844H260.863C260.719 53.668 260.023 55.168 258.775 56.344C258.007 57.016 257.095 57.532 256.039 57.892C254.983 58.228 253.807 58.396 252.511 58.396C250.543 58.396 248.863 58 247.471 57.208C246.079 56.416 245.071 55.288 244.447 53.824C243.847 52.6 243.547 51.076 243.547 49.252C243.547 48.316 243.619 47.476 243.763 46.732C243.907 45.988 244.135 45.292 244.447 44.644C245.095 43.204 246.091 42.088 247.435 41.296C248.779 40.48 250.399 40.072 252.295 40.072C254.191 40.072 255.799 40.468 257.119 41.26C258.463 42.052 259.447 43.144 260.071 44.536C260.407 45.304 260.635 46.108 260.755 46.948C260.899 47.788 260.971 48.772 260.971 49.9H246.463C246.535 51.172 246.751 52.216 247.111 53.032C247.543 53.992 248.215 54.736 249.127 55.264C250.039 55.768 251.155 56.02 252.475 56.02C253.339 56.02 254.119 55.912 254.815 55.696C255.535 55.48 256.135 55.156 256.615 54.724ZM252.331 42.484C249.739 42.484 247.999 43.492 247.111 45.508C246.823 46.18 246.631 46.912 246.535 47.704H258.019C257.923 46.816 257.731 46.024 257.443 45.328C257.035 44.392 256.399 43.684 255.535 43.204C254.671 42.724 253.603 42.484 252.331 42.484ZM270.469 58.468C268.741 58.468 267.313 58.192 266.185 57.64C265.057 57.064 264.253 56.224 263.773 55.12C263.389 54.28 263.197 53.284 263.197 52.132H266.041C266.041 52.924 266.173 53.584 266.437 54.112C267.037 55.504 268.393 56.2 270.505 56.2C271.537 56.2 272.389 56.056 273.061 55.768C273.757 55.48 274.225 55.048 274.465 54.472C274.633 54.04 274.717 53.656 274.717 53.32C274.717 52.912 274.645 52.564 274.501 52.276C274.309 51.868 273.997 51.544 273.565 51.304C273.157 51.04 272.665 50.836 272.089 50.692C271.537 50.524 270.745 50.332 269.713 50.116C268.297 49.804 267.121 49.408 266.185 48.928C265.249 48.424 264.589 47.74 264.205 46.876C263.965 46.324 263.845 45.7 263.845 45.004C263.845 44.26 263.989 43.6 264.277 43.024C264.685 42.088 265.405 41.368 266.437 40.864C267.493 40.336 268.777 40.072 270.289 40.072C271.849 40.072 273.157 40.336 274.213 40.864C275.269 41.368 276.025 42.124 276.481 43.132C276.817 43.828 276.985 44.692 276.985 45.724H274.213C274.213 45.124 274.093 44.56 273.853 44.032C273.589 43.432 273.145 42.988 272.521 42.7C271.897 42.388 271.141 42.232 270.253 42.232C269.365 42.232 268.633 42.364 268.057 42.628C267.505 42.892 267.121 43.264 266.905 43.744C266.761 44.056 266.689 44.404 266.689 44.788C266.689 45.124 266.749 45.412 266.869 45.652C267.061 46.06 267.385 46.396 267.841 46.66C268.297 46.924 268.789 47.14 269.317 47.308C269.845 47.452 270.613 47.632 271.621 47.848C273.157 48.208 274.393 48.64 275.329 49.144C276.265 49.624 276.937 50.308 277.345 51.196C277.585 51.748 277.705 52.384 277.705 53.104C277.705 53.92 277.561 54.652 277.273 55.3C276.817 56.332 275.989 57.124 274.789 57.676C273.589 58.204 272.149 58.468 270.469 58.468ZM303.574 32.584V58H300.73V55.336C300.082 56.344 299.218 57.112 298.138 57.64C297.058 58.144 295.834 58.396 294.466 58.396C292.786 58.396 291.334 58.024 290.11 57.28C288.886 56.512 287.962 55.444 287.338 54.076C286.714 52.684 286.402 51.076 286.402 49.252C286.402 47.428 286.714 45.82 287.338 44.428C287.962 43.036 288.886 41.968 290.11 41.224C291.334 40.456 292.786 40.072 294.466 40.072C295.81 40.072 297.022 40.336 298.102 40.864C299.182 41.368 300.046 42.112 300.694 43.096V32.584H303.574ZM300.694 48.82C300.694 47.5 300.466 46.372 300.01 45.436C299.554 44.5 298.906 43.792 298.066 43.312C297.25 42.832 296.278 42.592 295.15 42.592C293.974 42.592 292.954 42.844 292.09 43.348C291.226 43.852 290.578 44.596 290.146 45.58C289.69 46.564 289.462 47.788 289.462 49.252C289.462 50.668 289.69 51.892 290.146 52.924C290.578 53.884 291.226 54.628 292.09 55.156C292.954 55.66 293.974 55.912 295.15 55.912C296.278 55.912 297.25 55.672 298.066 55.192C298.906 54.712 299.554 54.004 300.01 53.068C300.466 52.132 300.694 51.004 300.694 49.684V48.82ZM319.896 54.724C320.28 54.364 320.592 53.944 320.832 53.464C321.072 52.96 321.216 52.42 321.264 51.844H324.144C324 53.668 323.304 55.168 322.056 56.344C321.288 57.016 320.376 57.532 319.32 57.892C318.264 58.228 317.088 58.396 315.792 58.396C313.824 58.396 312.144 58 310.752 57.208C309.36 56.416 308.352 55.288 307.728 53.824C307.128 52.6 306.828 51.076 306.828 49.252C306.828 48.316 306.9 47.476 307.044 46.732C307.188 45.988 307.416 45.292 307.728 44.644C308.376 43.204 309.372 42.088 310.716 41.296C312.06 40.48 313.68 40.072 315.576 40.072C317.472 40.072 319.08 40.468 320.4 41.26C321.744 42.052 322.728 43.144 323.352 44.536C323.688 45.304 323.916 46.108 324.036 46.948C324.18 47.788 324.252 48.772 324.252 49.9H309.744C309.816 51.172 310.032 52.216 310.392 53.032C310.824 53.992 311.496 54.736 312.408 55.264C313.32 55.768 314.436 56.02 315.756 56.02C316.62 56.02 317.4 55.912 318.096 55.696C318.816 55.48 319.416 55.156 319.896 54.724ZM315.612 42.484C313.02 42.484 311.28 43.492 310.392 45.508C310.104 46.18 309.912 46.912 309.816 47.704H321.3C321.204 46.816 321.012 46.024 320.724 45.328C320.316 44.392 319.68 43.684 318.816 43.204C317.952 42.724 316.884 42.484 315.612 42.484ZM351.235 44.068C351.883 45.508 352.207 47.188 352.207 49.108C352.207 50.956 351.883 52.624 351.235 54.112C350.611 55.504 349.687 56.584 348.463 57.352C347.263 58.096 345.823 58.468 344.143 58.468C341.695 58.468 339.823 57.64 338.527 55.984V65.272H333.559V40.18H338.419V42.34C339.739 40.564 341.647 39.676 344.143 39.676C345.823 39.676 347.263 40.06 348.463 40.828C349.687 41.596 350.611 42.676 351.235 44.068ZM346.375 52.168C346.711 51.352 346.879 50.332 346.879 49.108C346.879 47.836 346.711 46.804 346.375 46.012C346.063 45.292 345.583 44.752 344.935 44.392C344.287 44.032 343.519 43.852 342.631 43.852C341.311 43.852 340.291 44.26 339.571 45.076C338.851 45.892 338.491 47.068 338.491 48.604V49.54C338.491 51.076 338.851 52.264 339.571 53.104C340.315 53.92 341.335 54.328 342.631 54.328C343.519 54.328 344.287 54.148 344.935 53.788C345.583 53.404 346.063 52.864 346.375 52.168ZM354.758 40.18H359.69V41.584C360.098 40.936 360.53 40.468 360.986 40.18C361.466 39.892 362.018 39.748 362.642 39.748C363.578 39.748 364.322 40.024 364.874 40.576C365.426 41.128 365.702 41.86 365.702 42.772C365.702 43.66 365.426 44.392 364.874 44.968C364.322 45.52 363.602 45.796 362.714 45.796C362.186 45.796 361.694 45.676 361.238 45.436C360.806 45.172 360.482 44.836 360.266 44.428C360.05 44.524 359.906 44.68 359.834 44.896C359.762 45.088 359.726 45.46 359.726 46.012V58H354.758V40.18ZM370.251 37.948C369.435 37.948 368.763 37.708 368.235 37.228C367.707 36.724 367.443 36.088 367.443 35.32C367.443 34.552 367.707 33.928 368.235 33.448C368.763 32.944 369.435 32.692 370.251 32.692C371.043 32.692 371.691 32.944 372.195 33.448C372.723 33.928 372.987 34.552 372.987 35.32C372.987 36.088 372.723 36.724 372.195 37.228C371.691 37.708 371.043 37.948 370.251 37.948ZM367.731 40.18H372.699V58H367.731V40.18ZM398.022 39.676C400.062 39.676 401.622 40.288 402.702 41.512C403.806 42.736 404.358 44.5 404.358 46.804V58H399.39V47.812C399.39 46.444 399.126 45.436 398.598 44.788C398.07 44.14 397.266 43.816 396.186 43.816C395.058 43.816 394.194 44.176 393.594 44.896C393.018 45.592 392.73 46.624 392.73 47.992V58H387.726V47.812C387.726 46.444 387.462 45.436 386.934 44.788C386.406 44.14 385.602 43.816 384.522 43.816C383.394 43.816 382.53 44.176 381.93 44.896C381.354 45.592 381.066 46.624 381.066 47.992V58H376.098V40.18H381.066V42.268C381.666 41.428 382.422 40.792 383.334 40.36C384.246 39.904 385.314 39.676 386.538 39.676C387.906 39.676 389.058 39.94 389.994 40.468C390.954 40.996 391.662 41.788 392.118 42.844C392.766 41.764 393.57 40.972 394.53 40.468C395.514 39.94 396.678 39.676 398.022 39.676ZM423.546 43.348C424.026 44.452 424.266 45.892 424.266 47.668V58H419.262V55.984C417.99 57.64 415.986 58.468 413.25 58.468C411.762 58.468 410.49 58.216 409.434 57.712C408.378 57.184 407.634 56.428 407.202 55.444C406.89 54.796 406.734 53.98 406.734 52.996C406.734 52.084 406.878 51.292 407.166 50.62C407.766 49.3 408.81 48.4 410.298 47.92C411.786 47.416 413.706 47.164 416.058 47.164H419.262V46.804C419.262 46.3 419.238 45.916 419.19 45.652C419.142 45.364 419.058 45.076 418.938 44.788C418.482 43.804 417.45 43.312 415.842 43.312C415.026 43.312 414.354 43.432 413.826 43.672C413.322 43.888 412.95 44.248 412.71 44.752C412.638 44.944 412.578 45.136 412.53 45.328C412.506 45.496 412.482 45.676 412.458 45.868H407.418C407.418 44.956 407.586 44.104 407.922 43.312C408.474 42.088 409.434 41.176 410.802 40.576C412.17 39.976 413.838 39.676 415.806 39.676C417.87 39.676 419.526 39.976 420.774 40.576C422.046 41.176 422.97 42.1 423.546 43.348ZM415.014 54.724C415.998 54.724 416.814 54.556 417.462 54.22C418.11 53.86 418.59 53.356 418.902 52.708C419.142 52.156 419.262 51.424 419.262 50.512V50.26H416.418C415.266 50.26 414.318 50.356 413.574 50.548C412.854 50.74 412.374 51.088 412.134 51.592C412.014 51.88 411.954 52.18 411.954 52.492C411.954 52.828 412.014 53.152 412.134 53.464C412.326 53.896 412.674 54.22 413.178 54.436C413.706 54.628 414.318 54.724 415.014 54.724ZM427.497 40.18H432.429V41.584C432.837 40.936 433.269 40.468 433.725 40.18C434.205 39.892 434.757 39.748 435.381 39.748C436.317 39.748 437.061 40.024 437.613 40.576C438.165 41.128 438.441 41.86 438.441 42.772C438.441 43.66 438.165 44.392 437.613 44.968C437.061 45.52 436.341 45.796 435.453 45.796C434.925 45.796 434.433 45.676 433.977 45.436C433.545 45.172 433.221 44.836 433.005 44.428C432.789 44.524 432.645 44.68 432.573 44.896C432.501 45.088 432.465 45.46 432.465 46.012V58H427.497V40.18ZM442.989 37.948C442.173 37.948 441.501 37.708 440.973 37.228C440.445 36.724 440.181 36.088 440.181 35.32C440.181 34.552 440.445 33.928 440.973 33.448C441.501 32.944 442.173 32.692 442.989 32.692C443.781 32.692 444.429 32.944 444.933 33.448C445.461 33.928 445.725 34.552 445.725 35.32C445.725 36.088 445.461 36.724 444.933 37.228C444.429 37.708 443.781 37.948 442.989 37.948ZM440.469 40.18H445.437V58H440.469V40.18ZM464.785 43.348C465.265 44.452 465.505 45.892 465.505 47.668V58H460.501V55.984C459.229 57.64 457.225 58.468 454.489 58.468C453.001 58.468 451.729 58.216 450.673 57.712C449.617 57.184 448.873 56.428 448.441 55.444C448.129 54.796 447.973 53.98 447.973 52.996C447.973 52.084 448.117 51.292 448.405 50.62C449.005 49.3 450.049 48.4 451.537 47.92C453.025 47.416 454.945 47.164 457.297 47.164H460.501V46.804C460.501 46.3 460.477 45.916 460.429 45.652C460.381 45.364 460.297 45.076 460.177 44.788C459.721 43.804 458.689 43.312 457.081 43.312C456.265 43.312 455.593 43.432 455.065 43.672C454.561 43.888 454.189 44.248 453.949 44.752C453.877 44.944 453.817 45.136 453.769 45.328C453.745 45.496 453.721 45.676 453.697 45.868H448.657C448.657 44.956 448.825 44.104 449.161 43.312C449.713 42.088 450.673 41.176 452.041 40.576C453.409 39.976 455.077 39.676 457.045 39.676C459.109 39.676 460.765 39.976 462.013 40.576C463.285 41.176 464.209 42.1 464.785 43.348ZM456.253 54.724C457.237 54.724 458.053 54.556 458.701 54.22C459.349 53.86 459.829 53.356 460.141 52.708C460.381 52.156 460.501 51.424 460.501 50.512V50.26H457.657C456.505 50.26 455.557 50.356 454.813 50.548C454.093 50.74 453.613 51.088 453.373 51.592C453.253 51.88 453.193 52.18 453.193 52.492C453.193 52.828 453.253 53.152 453.373 53.464C453.565 53.896 453.913 54.22 454.417 54.436C454.945 54.628 455.557 54.724 456.253 54.724Z" fill="white"/>
<defs>
<clipPath id="clip0_378_252">
<rect width="88.9231" height="107.301" fill="white"/>
</clipPath>
</defs>
</svg>
