<svg width="22" height="22" viewBox="0 0 22 22" fill="none" xmlns="http://www.w3.org/2000/svg">
<path d="M19.5937 19.4906H18.4937C18.5281 19.2156 18.5281 18.975 18.5281 18.7C18.5281 16.2594 16.3969 13.5781 14.5062 11.2062C14.4719 11.1375 14.4031 11.0687 14.3687 11C14.4031 10.9312 14.4719 10.8625 14.5062 10.7937C16.3969 8.42185 18.5281 5.7406 18.5281 3.29998C18.5281 3.02498 18.5281 2.74998 18.4937 2.50935H19.5937C20.0062 2.50935 20.3843 2.1656 20.3843 1.71873C20.3843 1.27185 20.0406 0.928101 19.5937 0.928101H2.40623C1.99373 0.928101 1.6156 1.27185 1.6156 1.71873C1.6156 2.1656 1.95935 2.50935 2.40623 2.50935H3.50623C3.47185 2.78435 3.47185 3.05935 3.47185 3.29998C3.47185 5.7406 5.6031 8.42185 7.49372 10.7937C7.5281 10.8625 7.59685 10.9312 7.63123 11C7.59685 11.0687 7.5281 11.1375 7.49372 11.2062C5.6031 13.5781 3.47185 16.2594 3.47185 18.7C3.47185 18.975 3.47185 19.25 3.50623 19.4906H2.40623C1.99373 19.4906 1.6156 19.8344 1.6156 20.2812C1.6156 20.7281 1.95935 21.0718 2.40623 21.0718H19.5937C20.0062 21.0718 20.3843 20.7281 20.3843 20.2812C20.3843 19.8344 20.0062 19.4906 19.5937 19.4906ZM5.01873 18.7C5.01873 16.8094 7.08123 14.2312 8.73123 12.1687C8.9031 11.9281 9.10935 11.7219 9.28123 11.4812C9.48748 11.2062 9.48748 10.7937 9.28123 10.5187C9.10935 10.3125 8.93748 10.0719 8.73123 9.83123C7.08123 7.76873 5.01873 5.1906 5.01873 3.29998C5.01873 3.02498 5.01873 2.74998 5.0531 2.50935H16.9468C16.9812 2.78435 16.9812 3.05935 16.9812 3.29998C16.9812 5.1906 14.9187 7.76873 13.2687 9.83123C13.0968 10.0719 12.8906 10.2781 12.7187 10.5187C12.5125 10.7937 12.5125 11.2062 12.7187 11.4812C12.8906 11.6875 13.0625 11.9281 13.2687 12.1687C14.9187 14.2312 16.9812 16.8094 16.9812 18.7C16.9812 18.975 16.9812 19.25 16.9468 19.4906H5.0531C5.01873 19.2156 5.01873 18.975 5.01873 18.7Z" fill="#7D13EF"/>
</svg>
