<svg width="531" height="108" viewBox="0 0 531 108" fill="none" xmlns="http://www.w3.org/2000/svg">
<g clip-path="url(#clip0_378_300)">
<path d="M88.9231 0H0V88.9231H88.9231V0Z" fill="#6802C1"/>
<path d="M44.4616 107.301L57.7876 84.2154H31.1306L44.4616 107.301Z" fill="#6802C1"/>
<path d="M88.9231 14.402H1.90735e-05V21.6006H88.9231V14.402Z" fill="#6802C1"/>
<path d="M88.9231 0H0V7.19853H88.9231V0Z" fill="#6802C1"/>
<path d="M88.9231 44.0431H1.90735e-05V51.2416H88.9231V44.0431Z" fill="#6802C1"/>
<path d="M88.9231 29.641H1.90735e-05V36.8396H88.9231V29.641Z" fill="#6802C1"/>
<path d="M88.9231 73.6841H1.90735e-05V80.8827H88.9231V73.6841Z" fill="#6802C1"/>
<path d="M88.9231 59.282H1.90735e-05V66.4806H88.9231V59.282Z" fill="#6802C1"/>
<path d="M20.146 73.9432L43.4403 45.5326C45.4878 43.0667 46.9275 41.0989 47.7694 39.6293C48.6063 38.1597 49.0298 36.72 49.0298 35.3002C49.0298 34.4085 48.9002 33.7011 48.6362 33.173C47.8491 31.3348 46.2251 30.4182 43.7591 30.4182C41.2932 30.4182 39.455 31.4145 38.5632 33.4072C37.9854 34.6128 37.6964 36.3165 37.6964 38.5234H21.5657C21.5657 34.3288 22.2233 30.7619 23.5335 27.8227C25.2123 24.1512 27.7928 21.4213 31.285 19.6378C34.7722 17.8544 39.0614 16.9626 44.1527 16.9626C49.244 16.9626 53.4884 17.8544 57.0602 19.6378C60.6271 21.4213 63.1977 24.0715 64.7719 27.5886C65.7682 30.0047 66.2664 32.6251 66.2664 35.4596C66.2664 37.9256 65.8479 40.1823 65.006 42.2298C64.1641 44.2772 62.8539 46.2948 61.0705 48.2875C57.8722 51.959 53.8819 55.8696 49.1095 60.0144H66.8941V74.1026H20.146V73.9432Z" fill="white"/>
</g>
<rect x="94" width="437" height="89" fill="#6802C1"/>
<path d="M123.376 32.584H138.496V35.248H126.4V43.744H138.388V46.408H126.4V55.336H138.496V58H123.376V32.584ZM148.372 58.468C146.644 58.468 145.216 58.192 144.088 57.64C142.96 57.064 142.156 56.224 141.676 55.12C141.292 54.28 141.1 53.284 141.1 52.132H143.944C143.944 52.924 144.076 53.584 144.34 54.112C144.94 55.504 146.296 56.2 148.408 56.2C149.44 56.2 150.292 56.056 150.964 55.768C151.66 55.48 152.128 55.048 152.368 54.472C152.536 54.04 152.62 53.656 152.62 53.32C152.62 52.912 152.548 52.564 152.404 52.276C152.212 51.868 151.9 51.544 151.468 51.304C151.06 51.04 150.568 50.836 149.992 50.692C149.44 50.524 148.648 50.332 147.616 50.116C146.2 49.804 145.024 49.408 144.088 48.928C143.152 48.424 142.492 47.74 142.108 46.876C141.868 46.324 141.748 45.7 141.748 45.004C141.748 44.26 141.892 43.6 142.18 43.024C142.588 42.088 143.308 41.368 144.34 40.864C145.396 40.336 146.68 40.072 148.192 40.072C149.752 40.072 151.06 40.336 152.116 40.864C153.172 41.368 153.928 42.124 154.384 43.132C154.72 43.828 154.888 44.692 154.888 45.724H152.116C152.116 45.124 151.996 44.56 151.756 44.032C151.492 43.432 151.048 42.988 150.424 42.7C149.8 42.388 149.044 42.232 148.156 42.232C147.268 42.232 146.536 42.364 145.96 42.628C145.408 42.892 145.024 43.264 144.808 43.744C144.664 44.056 144.592 44.404 144.592 44.788C144.592 45.124 144.652 45.412 144.772 45.652C144.964 46.06 145.288 46.396 145.744 46.66C146.2 46.924 146.692 47.14 147.22 47.308C147.748 47.452 148.516 47.632 149.524 47.848C151.06 48.208 152.296 48.64 153.232 49.144C154.168 49.624 154.84 50.308 155.248 51.196C155.488 51.748 155.608 52.384 155.608 53.104C155.608 53.92 155.464 54.652 155.176 55.3C154.72 56.332 153.892 57.124 152.692 57.676C151.492 58.204 150.052 58.468 148.372 58.468ZM166.476 58.396C164.628 58.396 163.032 58.012 161.688 57.244C160.344 56.452 159.348 55.336 158.7 53.896C158.124 52.552 157.836 51.004 157.836 49.252C157.836 47.476 158.124 45.94 158.7 44.644C159.348 43.18 160.332 42.052 161.652 41.26C162.996 40.468 164.604 40.072 166.476 40.072C168.948 40.072 170.928 40.744 172.416 42.088C173.064 42.688 173.568 43.396 173.928 44.212C174.312 45.028 174.516 45.928 174.54 46.912H171.444C171.348 45.64 170.892 44.596 170.076 43.78C169.644 43.396 169.116 43.108 168.492 42.916C167.892 42.7 167.22 42.592 166.476 42.592C165.3 42.592 164.292 42.856 163.452 43.384C162.636 43.888 162.012 44.608 161.58 45.544C161.148 46.48 160.932 47.716 160.932 49.252C160.932 50.764 161.148 52 161.58 52.96C162.012 53.872 162.636 54.592 163.452 55.12C164.292 55.624 165.3 55.876 166.476 55.876C167.244 55.876 167.928 55.78 168.528 55.588C169.152 55.372 169.668 55.072 170.076 54.688C170.484 54.328 170.796 53.884 171.012 53.356C171.252 52.828 171.384 52.252 171.408 51.628H174.54C174.42 53.62 173.724 55.216 172.452 56.416C171.732 57.064 170.856 57.556 169.824 57.892C168.816 58.228 167.7 58.396 166.476 58.396ZM185.709 58.432C183.789 58.432 182.157 58.024 180.813 57.208C179.493 56.392 178.509 55.264 177.861 53.824C177.261 52.528 176.961 51.004 176.961 49.252C176.961 47.548 177.261 46.024 177.861 44.68C178.509 43.24 179.493 42.112 180.813 41.296C182.157 40.48 183.789 40.072 185.709 40.072C187.629 40.072 189.249 40.48 190.569 41.296C191.913 42.112 192.909 43.24 193.557 44.68C194.157 46.072 194.457 47.596 194.457 49.252C194.457 50.908 194.157 52.432 193.557 53.824C192.909 55.264 191.913 56.392 190.569 57.208C189.249 58.024 187.629 58.432 185.709 58.432ZM185.709 55.912C186.957 55.912 188.001 55.66 188.841 55.156C189.681 54.628 190.317 53.896 190.749 52.96C191.181 52 191.397 50.764 191.397 49.252C191.397 47.716 191.181 46.48 190.749 45.544C190.317 44.608 189.681 43.888 188.841 43.384C188.001 42.856 186.957 42.592 185.709 42.592C184.461 42.592 183.405 42.856 182.541 43.384C181.701 43.888 181.077 44.608 180.669 45.544C180.237 46.48 180.021 47.716 180.021 49.252C180.021 50.764 180.237 52 180.669 52.96C181.101 53.896 181.737 54.628 182.577 55.156C183.417 55.66 184.461 55.912 185.709 55.912ZM197.726 32.584H200.606V58H197.726V32.584ZM219.119 43.528C219.599 44.56 219.839 45.928 219.839 47.632V58H216.959V55.516C215.687 57.46 213.527 58.432 210.479 58.432C208.991 58.432 207.719 58.18 206.663 57.676C205.607 57.172 204.863 56.44 204.431 55.48C204.143 54.784 203.999 54.016 203.999 53.176C203.999 52.336 204.143 51.592 204.431 50.944C204.983 49.72 205.955 48.88 207.347 48.424C208.763 47.944 210.563 47.704 212.747 47.704H216.959V47.128C216.959 46.6 216.923 46.132 216.851 45.724C216.779 45.316 216.659 44.92 216.491 44.536C215.891 43.168 214.475 42.484 212.243 42.484C209.963 42.484 208.511 43.132 207.887 44.428C207.671 44.932 207.563 45.448 207.563 45.976H204.647C204.695 44.92 204.875 44.068 205.187 43.42C205.667 42.292 206.507 41.452 207.707 40.9C208.931 40.348 210.431 40.072 212.207 40.072C214.031 40.072 215.507 40.36 216.635 40.936C217.787 41.488 218.615 42.352 219.119 43.528ZM211.199 56.02C212.495 56.02 213.575 55.792 214.439 55.336C215.327 54.856 215.975 54.16 216.383 53.248C216.767 52.408 216.959 51.352 216.959 50.08V49.9H212.963C211.451 49.9 210.191 50.044 209.183 50.332C208.199 50.596 207.551 51.076 207.239 51.772C207.071 52.156 206.987 52.54 206.987 52.924C206.987 53.356 207.071 53.788 207.239 54.22C207.503 54.844 207.983 55.3 208.679 55.588C209.375 55.876 210.215 56.02 211.199 56.02ZM231.548 40.288C232.172 40.288 232.76 40.36 233.312 40.504V43.096C232.76 42.976 232.172 42.916 231.548 42.916C229.988 42.916 228.812 43.384 228.02 44.32C227.228 45.232 226.832 46.552 226.832 48.28V58H223.952V40.504H226.796V42.772C227.276 41.98 227.912 41.368 228.704 40.936C229.496 40.504 230.444 40.288 231.548 40.288ZM247.615 54.724C247.999 54.364 248.311 53.944 248.551 53.464C248.791 52.96 248.935 52.42 248.983 51.844H251.863C251.719 53.668 251.023 55.168 249.775 56.344C249.007 57.016 248.095 57.532 247.039 57.892C245.983 58.228 244.807 58.396 243.511 58.396C241.543 58.396 239.863 58 238.471 57.208C237.079 56.416 236.071 55.288 235.447 53.824C234.847 52.6 234.547 51.076 234.547 49.252C234.547 48.316 234.619 47.476 234.763 46.732C234.907 45.988 235.135 45.292 235.447 44.644C236.095 43.204 237.091 42.088 238.435 41.296C239.779 40.48 241.399 40.072 243.295 40.072C245.191 40.072 246.799 40.468 248.119 41.26C249.463 42.052 250.447 43.144 251.071 44.536C251.407 45.304 251.635 46.108 251.755 46.948C251.899 47.788 251.971 48.772 251.971 49.9H237.463C237.535 51.172 237.751 52.216 238.111 53.032C238.543 53.992 239.215 54.736 240.127 55.264C241.039 55.768 242.155 56.02 243.475 56.02C244.339 56.02 245.119 55.912 245.815 55.696C246.535 55.48 247.135 55.156 247.615 54.724ZM243.331 42.484C240.739 42.484 238.999 43.492 238.111 45.508C237.823 46.18 237.631 46.912 237.535 47.704H249.019C248.923 46.816 248.731 46.024 248.443 45.328C248.035 44.392 247.399 43.684 246.535 43.204C245.671 42.724 244.603 42.484 243.331 42.484ZM261.469 58.468C259.741 58.468 258.313 58.192 257.185 57.64C256.057 57.064 255.253 56.224 254.773 55.12C254.389 54.28 254.197 53.284 254.197 52.132H257.041C257.041 52.924 257.173 53.584 257.437 54.112C258.037 55.504 259.393 56.2 261.505 56.2C262.537 56.2 263.389 56.056 264.061 55.768C264.757 55.48 265.225 55.048 265.465 54.472C265.633 54.04 265.717 53.656 265.717 53.32C265.717 52.912 265.645 52.564 265.501 52.276C265.309 51.868 264.997 51.544 264.565 51.304C264.157 51.04 263.665 50.836 263.089 50.692C262.537 50.524 261.745 50.332 260.713 50.116C259.297 49.804 258.121 49.408 257.185 48.928C256.249 48.424 255.589 47.74 255.205 46.876C254.965 46.324 254.845 45.7 254.845 45.004C254.845 44.26 254.989 43.6 255.277 43.024C255.685 42.088 256.405 41.368 257.437 40.864C258.493 40.336 259.777 40.072 261.289 40.072C262.849 40.072 264.157 40.336 265.213 40.864C266.269 41.368 267.025 42.124 267.481 43.132C267.817 43.828 267.985 44.692 267.985 45.724H265.213C265.213 45.124 265.093 44.56 264.853 44.032C264.589 43.432 264.145 42.988 263.521 42.7C262.897 42.388 262.141 42.232 261.253 42.232C260.365 42.232 259.633 42.364 259.057 42.628C258.505 42.892 258.121 43.264 257.905 43.744C257.761 44.056 257.689 44.404 257.689 44.788C257.689 45.124 257.749 45.412 257.869 45.652C258.061 46.06 258.385 46.396 258.841 46.66C259.297 46.924 259.789 47.14 260.317 47.308C260.845 47.452 261.613 47.632 262.621 47.848C264.157 48.208 265.393 48.64 266.329 49.144C267.265 49.624 267.937 50.308 268.345 51.196C268.585 51.748 268.705 52.384 268.705 53.104C268.705 53.92 268.561 54.652 268.273 55.3C267.817 56.332 266.989 57.124 265.789 57.676C264.589 58.204 263.149 58.468 261.469 58.468ZM294.574 32.584V58H291.73V55.336C291.082 56.344 290.218 57.112 289.138 57.64C288.058 58.144 286.834 58.396 285.466 58.396C283.786 58.396 282.334 58.024 281.11 57.28C279.886 56.512 278.962 55.444 278.338 54.076C277.714 52.684 277.402 51.076 277.402 49.252C277.402 47.428 277.714 45.82 278.338 44.428C278.962 43.036 279.886 41.968 281.11 41.224C282.334 40.456 283.786 40.072 285.466 40.072C286.81 40.072 288.022 40.336 289.102 40.864C290.182 41.368 291.046 42.112 291.694 43.096V32.584H294.574ZM291.694 48.82C291.694 47.5 291.466 46.372 291.01 45.436C290.554 44.5 289.906 43.792 289.066 43.312C288.25 42.832 287.278 42.592 286.15 42.592C284.974 42.592 283.954 42.844 283.09 43.348C282.226 43.852 281.578 44.596 281.146 45.58C280.69 46.564 280.462 47.788 280.462 49.252C280.462 50.668 280.69 51.892 281.146 52.924C281.578 53.884 282.226 54.628 283.09 55.156C283.954 55.66 284.974 55.912 286.15 55.912C287.278 55.912 288.25 55.672 289.066 55.192C289.906 54.712 290.554 54.004 291.01 53.068C291.466 52.132 291.694 51.004 291.694 49.684V48.82ZM310.896 54.724C311.28 54.364 311.592 53.944 311.832 53.464C312.072 52.96 312.216 52.42 312.264 51.844H315.144C315 53.668 314.304 55.168 313.056 56.344C312.288 57.016 311.376 57.532 310.32 57.892C309.264 58.228 308.088 58.396 306.792 58.396C304.824 58.396 303.144 58 301.752 57.208C300.36 56.416 299.352 55.288 298.728 53.824C298.128 52.6 297.828 51.076 297.828 49.252C297.828 48.316 297.9 47.476 298.044 46.732C298.188 45.988 298.416 45.292 298.728 44.644C299.376 43.204 300.372 42.088 301.716 41.296C303.06 40.48 304.68 40.072 306.576 40.072C308.472 40.072 310.08 40.468 311.4 41.26C312.744 42.052 313.728 43.144 314.352 44.536C314.688 45.304 314.916 46.108 315.036 46.948C315.18 47.788 315.252 48.772 315.252 49.9H300.744C300.816 51.172 301.032 52.216 301.392 53.032C301.824 53.992 302.496 54.736 303.408 55.264C304.32 55.768 305.436 56.02 306.756 56.02C307.62 56.02 308.4 55.912 309.096 55.696C309.816 55.48 310.416 55.156 310.896 54.724ZM306.612 42.484C304.02 42.484 302.28 43.492 301.392 45.508C301.104 46.18 300.912 46.912 300.816 47.704H312.3C312.204 46.816 312.012 46.024 311.724 45.328C311.316 44.392 310.68 43.684 309.816 43.204C308.952 42.724 307.884 42.484 306.612 42.484ZM331.579 58.576C329.707 58.576 328.147 58.288 326.899 57.712C325.651 57.112 324.763 56.224 324.235 55.048C323.875 54.184 323.695 53.2 323.695 52.096H328.591C328.591 52.768 328.687 53.296 328.879 53.68C329.311 54.64 330.235 55.12 331.651 55.12C332.995 55.12 333.847 54.736 334.207 53.968C334.327 53.728 334.387 53.476 334.387 53.212C334.387 52.9 334.327 52.624 334.207 52.384C334.063 52.048 333.811 51.784 333.451 51.592C333.115 51.376 332.635 51.184 332.011 51.016C331.411 50.848 330.763 50.692 330.067 50.548C328.747 50.236 327.619 49.828 326.683 49.324C325.771 48.796 325.111 48.076 324.703 47.164C324.583 46.852 324.487 46.54 324.415 46.228C324.367 45.916 324.343 45.556 324.343 45.148C324.343 44.332 324.487 43.588 324.775 42.916C325.255 41.884 326.095 41.092 327.295 40.54C328.495 39.964 329.923 39.676 331.579 39.676C333.235 39.676 334.651 39.952 335.827 40.504C337.027 41.032 337.879 41.836 338.383 42.916C338.719 43.66 338.887 44.512 338.887 45.472H334.135C334.135 44.992 334.051 44.548 333.883 44.14C333.691 43.732 333.391 43.432 332.983 43.24C332.575 43.024 332.083 42.916 331.507 42.916C330.931 42.916 330.451 43 330.067 43.168C329.707 43.336 329.455 43.576 329.311 43.888C329.215 44.056 329.167 44.284 329.167 44.572C329.167 44.884 329.215 45.1 329.311 45.22C329.479 45.556 329.755 45.844 330.139 46.084C330.547 46.3 331.051 46.492 331.651 46.66C332.275 46.828 332.887 46.984 333.487 47.128C334.975 47.512 336.187 47.968 337.123 48.496C338.059 49 338.743 49.72 339.175 50.656C339.439 51.208 339.571 51.892 339.571 52.708C339.571 53.62 339.415 54.424 339.103 55.12C338.575 56.272 337.639 57.136 336.295 57.712C334.975 58.288 333.403 58.576 331.579 58.576ZM353.91 53.752C354.174 53.536 354.39 53.26 354.558 52.924C354.726 52.588 354.834 52.252 354.882 51.916H359.886C359.742 53.62 359.046 55.06 357.798 56.236C356.982 56.956 355.974 57.508 354.774 57.892C353.598 58.276 352.314 58.468 350.922 58.468C348.786 58.468 346.962 58.06 345.45 57.244C343.938 56.404 342.834 55.204 342.138 53.644C341.562 52.42 341.274 50.884 341.274 49.036C341.274 48.124 341.346 47.308 341.49 46.588C341.634 45.868 341.85 45.184 342.138 44.536C342.81 43 343.866 41.812 345.306 40.972C346.77 40.108 348.534 39.676 350.598 39.676C352.638 39.676 354.39 40.108 355.854 40.972C357.318 41.812 358.398 43 359.094 44.536C359.43 45.376 359.658 46.24 359.778 47.128C359.922 47.992 359.994 49.072 359.994 50.368H346.314C346.386 51.256 346.542 51.988 346.782 52.564C347.43 53.98 348.774 54.688 350.814 54.688C352.23 54.688 353.262 54.376 353.91 53.752ZM350.67 43.42C348.726 43.42 347.43 44.14 346.782 45.58C346.566 46.108 346.422 46.648 346.35 47.2H354.918C354.87 46.6 354.726 46.036 354.486 45.508C354.15 44.812 353.658 44.296 353.01 43.96C352.386 43.6 351.606 43.42 350.67 43.42ZM371.235 58.468C369.219 58.468 367.479 58.06 366.015 57.244C364.551 56.428 363.471 55.252 362.775 53.716C362.199 52.372 361.911 50.836 361.911 49.108C361.911 47.332 362.199 45.796 362.775 44.5C363.471 42.94 364.539 41.752 365.979 40.936C367.443 40.096 369.195 39.676 371.235 39.676C372.627 39.676 373.887 39.868 375.015 40.252C376.167 40.636 377.151 41.2 377.967 41.944C378.663 42.568 379.203 43.312 379.587 44.176C379.995 45.016 380.211 45.952 380.235 46.984H374.835C374.763 46.024 374.427 45.244 373.827 44.644C373.515 44.38 373.131 44.176 372.675 44.032C372.243 43.888 371.775 43.816 371.271 43.816C370.455 43.816 369.747 43.996 369.147 44.356C368.547 44.692 368.091 45.196 367.779 45.868C367.611 46.276 367.479 46.732 367.383 47.236C367.311 47.74 367.275 48.352 367.275 49.072C367.275 49.816 367.311 50.44 367.383 50.944C367.479 51.448 367.611 51.892 367.779 52.276C368.091 52.948 368.547 53.464 369.147 53.824C369.747 54.16 370.455 54.328 371.271 54.328C371.823 54.328 372.315 54.256 372.747 54.112C373.179 53.968 373.539 53.764 373.827 53.5C374.139 53.212 374.379 52.864 374.547 52.456C374.715 52.048 374.811 51.616 374.835 51.16H380.235C380.163 53.248 379.419 54.94 378.003 56.236C377.187 56.956 376.203 57.508 375.051 57.892C373.899 58.276 372.627 58.468 371.235 58.468ZM399.733 40.18V58H394.729V55.876C393.481 57.628 391.645 58.504 389.221 58.504C387.133 58.504 385.513 57.904 384.361 56.704C383.209 55.48 382.633 53.728 382.633 51.448V40.18H387.637V50.404C387.637 51.772 387.913 52.78 388.465 53.428C389.017 54.052 389.869 54.364 391.021 54.364C392.221 54.364 393.133 54.016 393.757 53.32C394.405 52.6 394.729 51.556 394.729 50.188V40.18H399.733ZM413.574 39.676C415.686 39.676 417.306 40.288 418.434 41.512C419.586 42.712 420.162 44.464 420.162 46.768V58H415.194V47.812C415.194 46.42 414.906 45.412 414.33 44.788C413.778 44.14 412.926 43.816 411.774 43.816C410.574 43.816 409.65 44.176 409.002 44.896C408.378 45.592 408.066 46.624 408.066 47.992V58H403.098V40.18H408.066V42.34C409.314 40.564 411.15 39.676 413.574 39.676ZM441.203 32.584V58H436.307V55.876C435.011 57.604 433.115 58.468 430.619 58.468C428.939 58.468 427.487 58.096 426.263 57.352C425.063 56.584 424.151 55.504 423.527 54.112C422.879 52.624 422.555 50.956 422.555 49.108C422.555 47.188 422.879 45.508 423.527 44.068C424.151 42.676 425.063 41.596 426.263 40.828C427.487 40.06 428.939 39.676 430.619 39.676C433.019 39.676 434.879 40.504 436.199 42.16V32.584H441.203ZM436.235 48.604C436.235 47.068 435.875 45.892 435.155 45.076C434.435 44.236 433.415 43.816 432.095 43.816C431.207 43.816 430.439 44.008 429.791 44.392C429.167 44.752 428.699 45.292 428.387 46.012C428.051 46.708 427.883 47.74 427.883 49.108C427.883 50.428 428.051 51.46 428.387 52.204C428.723 52.9 429.203 53.44 429.827 53.824C430.451 54.184 431.207 54.364 432.095 54.364C433.415 54.364 434.435 53.956 435.155 53.14C435.875 52.3 436.235 51.112 436.235 49.576V48.604ZM460.531 43.348C461.011 44.452 461.251 45.892 461.251 47.668V58H456.247V55.984C454.975 57.64 452.971 58.468 450.235 58.468C448.747 58.468 447.475 58.216 446.419 57.712C445.363 57.184 444.619 56.428 444.187 55.444C443.875 54.796 443.719 53.98 443.719 52.996C443.719 52.084 443.863 51.292 444.151 50.62C444.751 49.3 445.795 48.4 447.283 47.92C448.771 47.416 450.691 47.164 453.043 47.164H456.247V46.804C456.247 46.3 456.223 45.916 456.175 45.652C456.127 45.364 456.043 45.076 455.923 44.788C455.467 43.804 454.435 43.312 452.827 43.312C452.011 43.312 451.339 43.432 450.811 43.672C450.307 43.888 449.935 44.248 449.695 44.752C449.623 44.944 449.563 45.136 449.515 45.328C449.491 45.496 449.467 45.676 449.443 45.868H444.403C444.403 44.956 444.571 44.104 444.907 43.312C445.459 42.088 446.419 41.176 447.787 40.576C449.155 39.976 450.823 39.676 452.791 39.676C454.855 39.676 456.511 39.976 457.759 40.576C459.031 41.176 459.955 42.1 460.531 43.348ZM451.999 54.724C452.983 54.724 453.799 54.556 454.447 54.22C455.095 53.86 455.575 53.356 455.887 52.708C456.127 52.156 456.247 51.424 456.247 50.512V50.26H453.403C452.251 50.26 451.303 50.356 450.559 50.548C449.839 50.74 449.359 51.088 449.119 51.592C448.999 51.88 448.939 52.18 448.939 52.492C448.939 52.828 448.999 53.152 449.119 53.464C449.311 53.896 449.659 54.22 450.163 54.436C450.691 54.628 451.303 54.724 451.999 54.724ZM464.481 40.18H469.413V41.584C469.821 40.936 470.253 40.468 470.709 40.18C471.189 39.892 471.741 39.748 472.365 39.748C473.301 39.748 474.045 40.024 474.597 40.576C475.149 41.128 475.425 41.86 475.425 42.772C475.425 43.66 475.149 44.392 474.597 44.968C474.045 45.52 473.325 45.796 472.437 45.796C471.909 45.796 471.417 45.676 470.961 45.436C470.529 45.172 470.205 44.836 469.989 44.428C469.773 44.524 469.629 44.68 469.557 44.896C469.485 45.088 469.449 45.46 469.449 46.012V58H464.481V40.18ZM479.974 37.948C479.158 37.948 478.486 37.708 477.958 37.228C477.43 36.724 477.166 36.088 477.166 35.32C477.166 34.552 477.43 33.928 477.958 33.448C478.486 32.944 479.158 32.692 479.974 32.692C480.766 32.692 481.414 32.944 481.918 33.448C482.446 33.928 482.71 34.552 482.71 35.32C482.71 36.088 482.446 36.724 481.918 37.228C481.414 37.708 480.766 37.948 479.974 37.948ZM477.454 40.18H482.422V58H477.454V40.18ZM501.769 43.348C502.249 44.452 502.489 45.892 502.489 47.668V58H497.485V55.984C496.213 57.64 494.209 58.468 491.473 58.468C489.985 58.468 488.713 58.216 487.657 57.712C486.601 57.184 485.857 56.428 485.425 55.444C485.113 54.796 484.957 53.98 484.957 52.996C484.957 52.084 485.101 51.292 485.389 50.62C485.989 49.3 487.033 48.4 488.521 47.92C490.009 47.416 491.929 47.164 494.281 47.164H497.485V46.804C497.485 46.3 497.461 45.916 497.413 45.652C497.365 45.364 497.281 45.076 497.161 44.788C496.705 43.804 495.673 43.312 494.065 43.312C493.249 43.312 492.577 43.432 492.049 43.672C491.545 43.888 491.173 44.248 490.933 44.752C490.861 44.944 490.801 45.136 490.753 45.328C490.729 45.496 490.705 45.676 490.681 45.868H485.641C485.641 44.956 485.809 44.104 486.145 43.312C486.697 42.088 487.657 41.176 489.025 40.576C490.393 39.976 492.061 39.676 494.029 39.676C496.093 39.676 497.749 39.976 498.997 40.576C500.269 41.176 501.193 42.1 501.769 43.348ZM493.237 54.724C494.221 54.724 495.037 54.556 495.685 54.22C496.333 53.86 496.813 53.356 497.125 52.708C497.365 52.156 497.485 51.424 497.485 50.512V50.26H494.641C493.489 50.26 492.541 50.356 491.797 50.548C491.077 50.74 490.597 51.088 490.357 51.592C490.237 51.88 490.177 52.18 490.177 52.492C490.177 52.828 490.237 53.152 490.357 53.464C490.549 53.896 490.897 54.22 491.401 54.436C491.929 54.628 492.541 54.724 493.237 54.724Z" fill="white"/>
<defs>
<clipPath id="clip0_378_300">
<rect width="88.9231" height="107.301" fill="white"/>
</clipPath>
</defs>
</svg>
